# xmcd
#
# Track frame offsets:
#	150
#	14049
#	30476
#	46348
#	61286
#	76091
#	93048
#	109351
#	125740
#	140775
#	155824
#	169387
#	186159
#	199950
#	214401
#	230513
#	246010
#	259557
#	274774
#	285078
#	302233
#	318526
#	332374
#
# Disc length: 4636 seconds
#
# Revision: 0
# Processed by: cddbd v1.5.2PL0 Copyright (c) Steve Scherf et al.
# Submitted via: dBpowerAMP V4.0
#
DISCID=52121a17
DTITLE=Various Artist - ERG erNu Country Traxx Vol. 233 CAN
DYEAR=2013
DGENRE=Country
TTITLE0=Lady Antebellum - Compass
TTITLE1=Dan and Shay - 19 You and Me
TTITLE2=Charlie Major - Friday Night's And You
TTITLE3=Tim Hicks - Buzz, Buzz, Buzzing
TTITLE4=Little Big Town - Sober
TTITLE5=Jerrod Niemann - Drink To That All Night
TTITLE6=Jason Blaine - Feels Like That
TTITLE7=Chris Carmack - What If I Was Willing
TTITLE8=Leah Turner - Take The Keys
TTITLE9=Florida Georgia Line - Stay
TTITLE10=Brett Eldredge - Beat Of The Music
TTITLE11=Rodney Atkins - Doin' It Right
TTITLE12=Jess Moskaluke - Good Lovin'
TTITLE13=Chad Brownlee - Where The Party At?
TTITLE14=Bobby Wills - When it Comes To You
TTITLE15=Locash Cowboys - Best Seat In The House
TTITLE16=Gord Bamford - When Your Lips Are So Close
TTITLE17=Jo Dee Messina - Peace Sign
TTITLE18=Hank Williams Jr. ft. Merle Haggard - I Think I'll Just Stay Here And Drink
TTITLE19=Jason Greeley - Slammin Doors
TTITLE20=Blackjack Billy - Get Some
TTITLE21=Tim Hicks - Hell Raisin' Good Time
TTITLE22=Steven Lee Olsen - Never Done It Like This
EXTD=
EXTT0=
EXTT1=
EXTT2=
EXTT3=
EXTT4=
EXTT5=
EXTT6=
EXTT7=
EXTT8=
EXTT9=
EXTT10=
EXTT11=
EXTT12=
EXTT13=
EXTT14=
EXTT15=
EXTT16=
EXTT17=
EXTT18=
EXTT19=
EXTT20=
EXTT21=
EXTT22=
PLAYORDER=
